<svg width="38" height="37" viewBox="0 0 38 37" fill="none" xmlns="http://www.w3.org/2000/svg">
<g clip-path="url(#clip0)">
<path d="M28.8862 18.4894C23.3626 18.4826 18.8867 14.0066 18.8799 8.48312C18.8799 8.22298 18.8999 7.96897 18.9183 7.71338H7.33419C6.90909 7.71374 6.56481 8.05867 6.56517 8.48384C6.56524 8.5311 6.56964 8.5783 6.5783 8.62477L8.88744 20.9402C8.95556 21.3041 9.27307 21.5679 9.64332 21.5683H30.7858C32.7269 21.5685 34.3644 20.1231 34.6051 18.1969L34.8144 16.5251C33.1007 17.7998 31.022 18.4885 28.8862 18.4894Z" fill="#111111"/>
<path d="M28.8861 36.9626C31.0116 36.9626 32.7347 35.2395 32.7347 33.1141C32.7347 30.9886 31.0116 29.2655 28.8861 29.2655C26.7606 29.2655 25.0376 30.9886 25.0376 33.1141C25.0376 35.2395 26.7606 36.9626 28.8861 36.9626Z" fill="#111111"/>
<path d="M13.4918 36.9626C15.6173 36.9626 17.3404 35.2395 17.3404 33.1141C17.3404 30.9886 15.6173 29.2655 13.4918 29.2655C11.3664 29.2655 9.64331 30.9886 9.64331 33.1141C9.64331 35.2395 11.3664 36.9626 13.4918 36.9626Z" fill="#111111"/>
<path d="M32.2052 29.5133H14.4387C11.8726 29.5079 9.66439 27.698 9.15544 25.1829L5.40389 6.42192H1.4168C0.991703 6.42192 0.647064 6.07728 0.647064 5.65218C0.647064 5.22708 0.991703 4.88245 1.4168 4.88245H6.03507C6.40093 4.88237 6.7162 5.13977 6.78937 5.49819L10.6656 24.8796C11.0289 26.6761 12.6059 27.9693 14.4387 27.9738H32.2052C32.6303 27.9738 32.975 28.3185 32.975 28.7435C32.975 29.1686 32.6303 29.5133 32.2052 29.5133Z" fill="#111111"/>
<path d="M28.8861 16.95C33.5622 16.95 37.3529 13.1593 37.3529 8.48317C37.3529 3.80708 33.5622 0.0163574 28.8861 0.0163574C24.21 0.0163574 20.4193 3.80708 20.4193 8.48317C20.4193 13.1593 24.21 16.95 28.8861 16.95Z" fill="#FEB53E"/>
<path d="M31.9649 9.25285H25.8073C25.3822 9.25285 25.0375 8.90821 25.0375 8.48311C25.0375 8.05802 25.3822 7.71338 25.8073 7.71338H31.9649C32.39 7.71338 32.7347 8.05802 32.7347 8.48311C32.7347 8.90821 32.39 9.25285 31.9649 9.25285Z" fill="#FAFAFA"/>
<path d="M28.8861 12.3318C28.461 12.3318 28.1164 11.9872 28.1164 11.5621V5.40438C28.1164 4.97928 28.461 4.63464 28.8861 4.63464C29.3112 4.63464 29.6559 4.97928 29.6559 5.40438V11.5621C29.6558 11.9872 29.3112 12.3318 28.8861 12.3318Z" fill="#FAFAFA"/>
</g>
<defs>
<clipPath id="clip0">
<rect width="36.9462" height="36.9462" fill="white" transform="translate(0.406769 0.0163574)"/>
</clipPath>
</defs>
</svg>
