<svg width="18" height="18" viewBox="0 0 18 18" fill="none" xmlns="http://www.w3.org/2000/svg">
<path fill-rule="evenodd" clip-rule="evenodd" d="M18 3.79339V17.1818C18 17.6337 17.6007 18 17.1081 18H0.891892C0.399314 18 0 17.6337 0 17.1818V3.79339C0 4.24526 0.399314 4.61157 0.891892 4.61157H1.78379V16.3636H16.2162V4.61157H17.1081C17.6007 4.61157 18 4.24526 18 3.79339ZM17.7381 3.2142L17.7388 3.21485C17.906 3.36829 18 3.57639 18 3.79339C18 3.56712 17.8999 3.36231 17.7381 3.2142ZM14.9549 2.97521L13.4954 1.63636H4.50457L3.04511 2.97521H0.891892C0.645663 2.97521 0.422739 3.06674 0.261347 3.21474L3.50447 0.23964C3.67173 0.086201 3.89859 0 4.13513 0H13.8649C14.1014 0 14.3283 0.086201 14.4955 0.23964L17.7381 3.2142C17.5767 3.06652 17.354 2.97521 17.1081 2.97521H14.9549ZM14.9549 2.97521L16.2162 4.13229V4.61157H1.78379V4.13229L3.04511 2.97521H14.9549ZM0.259399 3.21653C0.0932816 3.36981 0 3.57719 0 3.79339C0 3.56831 0.0990741 3.36446 0.259399 3.21653ZM0.259399 3.21653C0.260008 3.21597 0.260618 3.21541 0.261229 3.21485L0.261282 3.2148M13.0541 6.69422C12.5615 6.69422 12.1622 7.06053 12.1622 7.5124C12.1622 9.14318 10.7777 10.4132 9 10.4132C7.22231 10.4132 5.83784 9.14318 5.83784 7.5124C5.83784 7.06053 5.43852 6.69422 4.94595 6.69422C4.45337 6.69422 4.05405 7.06053 4.05405 7.5124C4.05405 10.0469 6.23715 12.0496 9 12.0496C11.7628 12.0496 13.9459 10.0469 13.9459 7.5124C13.9459 7.06053 13.5466 6.69422 13.0541 6.69422Z" fill="#111111"/>
<mask id="mask0" mask-type="alpha" maskUnits="userSpaceOnUse" x="0" y="0" width="18" height="18">
<path fill-rule="evenodd" clip-rule="evenodd" d="M18 3.79339V17.1818C18 17.6337 17.6007 18 17.1081 18H0.891892C0.399314 18 0 17.6337 0 17.1818V3.79339C0 4.24526 0.399314 4.61157 0.891892 4.61157H1.78379V16.3636H16.2162V4.61157H17.1081C17.6007 4.61157 18 4.24526 18 3.79339ZM17.7381 3.2142L17.7388 3.21485C17.906 3.36829 18 3.57639 18 3.79339C18 3.56712 17.8999 3.36231 17.7381 3.2142ZM14.9549 2.97521L13.4954 1.63636H4.50457L3.04511 2.97521H0.891892C0.645663 2.97521 0.422739 3.06674 0.261347 3.21474L3.50447 0.23964C3.67173 0.086201 3.89859 0 4.13513 0H13.8649C14.1014 0 14.3283 0.086201 14.4955 0.23964L17.7381 3.2142C17.5767 3.06652 17.354 2.97521 17.1081 2.97521H14.9549ZM14.9549 2.97521L16.2162 4.13229V4.61157H1.78379V4.13229L3.04511 2.97521H14.9549ZM0.259399 3.21653C0.0932816 3.36981 0 3.57719 0 3.79339C0 3.56831 0.0990741 3.36446 0.259399 3.21653ZM0.259399 3.21653C0.260008 3.21597 0.260618 3.21541 0.261229 3.21485L0.261282 3.2148M13.0541 6.69422C12.5615 6.69422 12.1622 7.06053 12.1622 7.5124C12.1622 9.14318 10.7777 10.4132 9 10.4132C7.22231 10.4132 5.83784 9.14318 5.83784 7.5124C5.83784 7.06053 5.43852 6.69422 4.94595 6.69422C4.45337 6.69422 4.05405 7.06053 4.05405 7.5124C4.05405 10.0469 6.23715 12.0496 9 12.0496C11.7628 12.0496 13.9459 10.0469 13.9459 7.5124C13.9459 7.06053 13.5466 6.69422 13.0541 6.69422Z" fill="white"/>
</mask>
<g mask="url(#mask0)">
<g filter="url(#filter0_d)">
<rect width="18" height="18" fill="#FEB53E"/>
</g>
</g>
<defs>
<filter id="filter0_d" x="-8" y="-3" width="34" height="34" filterUnits="userSpaceOnUse" color-interpolation-filters="sRGB">
<feFlood flood-opacity="0" result="BackgroundImageFix"/>
<feColorMatrix in="SourceAlpha" type="matrix" values="0 0 0 0 0 0 0 0 0 0 0 0 0 0 0 0 0 0 127 0"/>
<feOffset dy="5"/>
<feGaussianBlur stdDeviation="4"/>
<feColorMatrix type="matrix" values="0 0 0 0 0 0 0 0 0 0 0 0 0 0 0 0 0 0 0.139804 0"/>
<feBlend mode="normal" in2="BackgroundImageFix" result="effect1_dropShadow"/>
<feBlend mode="normal" in="SourceGraphic" in2="effect1_dropShadow" result="shape"/>
</filter>
</defs>
</svg>
