<svg width="12" height="12" viewBox="0 0 12 12" fill="none" xmlns="http://www.w3.org/2000/svg">
<path fill-rule="evenodd" clip-rule="evenodd" d="M1.98347 7.6754H0.545455C0.244208 7.6754 0 7.44615 0 7.16337V1.11213C0 0.82934 0.244208 0.600098 0.545455 0.600098H9.47107C9.77232 0.600098 10.0165 0.82934 10.0165 1.11213V7.16337C10.0165 7.44615 9.77232 7.6754 9.47107 7.6754H6.1748L2.84596 9.90742C2.48495 10.1495 1.98347 9.90724 1.98347 9.49077V7.6754ZM10.9091 2.97404C10.9091 2.69126 11.1533 2.46201 11.4545 2.46201C11.7558 2.46201 12 2.69126 12 2.97404V9.02528C12 9.30807 11.7558 9.53731 11.4545 9.53731H10.0165V10.8872C10.0165 11.2962 9.53098 11.5401 9.1685 11.3132L6.3307 9.53731H5.99999C5.69874 9.53731 5.45453 9.30807 5.45453 9.02528C5.45453 8.7425 5.69874 8.51326 5.99999 8.51326H6.49585C6.60354 8.51326 6.70882 8.54318 6.79842 8.59925L8.92561 9.93047V9.02528C8.92561 8.7425 9.16981 8.51326 9.47106 8.51326H10.9091V2.97404ZM1.09089 1.62414H8.9256V6.65133H5.99998C5.88629 6.65133 5.77545 6.68467 5.68294 6.7467L3.07436 8.49579V7.16336C3.07436 6.88057 2.83015 6.65133 2.5289 6.65133H1.09089V1.62414Z" fill="#111111"/>
<mask id="mask0" mask-type="alpha" maskUnits="userSpaceOnUse" x="0" y="0" width="12" height="12">
<path fill-rule="evenodd" clip-rule="evenodd" d="M1.98347 7.6754H0.545455C0.244208 7.6754 0 7.44615 0 7.16337V1.11213C0 0.82934 0.244208 0.600098 0.545455 0.600098H9.47107C9.77232 0.600098 10.0165 0.82934 10.0165 1.11213V7.16337C10.0165 7.44615 9.77232 7.6754 9.47107 7.6754H6.1748L2.84596 9.90742C2.48495 10.1495 1.98347 9.90724 1.98347 9.49077V7.6754ZM10.9091 2.97404C10.9091 2.69126 11.1533 2.46201 11.4545 2.46201C11.7558 2.46201 12 2.69126 12 2.97404V9.02528C12 9.30807 11.7558 9.53731 11.4545 9.53731H10.0165V10.8872C10.0165 11.2962 9.53098 11.5401 9.1685 11.3132L6.3307 9.53731H5.99999C5.69874 9.53731 5.45453 9.30807 5.45453 9.02528C5.45453 8.7425 5.69874 8.51326 5.99999 8.51326H6.49585C6.60354 8.51326 6.70882 8.54318 6.79842 8.59925L8.92561 9.93047V9.02528C8.92561 8.7425 9.16981 8.51326 9.47106 8.51326H10.9091V2.97404ZM1.09089 1.62414H8.9256V6.65133H5.99998C5.88629 6.65133 5.77545 6.68467 5.68294 6.7467L3.07436 8.49579V7.16336C3.07436 6.88057 2.83015 6.65133 2.5289 6.65133H1.09089V1.62414Z" fill="white"/>
</mask>
<g mask="url(#mask0)">
<g filter="url(#filter0_d)">
<rect width="12" height="12" fill="#999999"/>
</g>
</g>
<defs>
<filter id="filter0_d" x="-8" y="-3" width="28" height="28" filterUnits="userSpaceOnUse" color-interpolation-filters="sRGB">
<feFlood flood-opacity="0" result="BackgroundImageFix"/>
<feColorMatrix in="SourceAlpha" type="matrix" values="0 0 0 0 0 0 0 0 0 0 0 0 0 0 0 0 0 0 127 0"/>
<feOffset dy="5"/>
<feGaussianBlur stdDeviation="4"/>
<feColorMatrix type="matrix" values="0 0 0 0 0 0 0 0 0 0 0 0 0 0 0 0 0 0 0.139804 0"/>
<feBlend mode="normal" in2="BackgroundImageFix" result="effect1_dropShadow"/>
<feBlend mode="normal" in="SourceGraphic" in2="effect1_dropShadow" result="shape"/>
</filter>
</defs>
</svg>
