<svg width="20" height="20" viewBox="0 0 20 20" fill="none" xmlns="http://www.w3.org/2000/svg">
<path fill-rule="evenodd" clip-rule="evenodd" d="M9.33058 9.33058V1H1V9.33058H9.33058ZM2.63636 7.69421V2.63636H7.69421V7.69421H2.63636ZM12.3058 2.63636V7.69421H17.3636V2.63636H12.3058ZM19 9.33058V1H10.6694V9.33058H19ZM2.63636 12.3058V17.3636H7.69421V12.3058H2.63636ZM9.33058 19V10.6694H1V19H9.33058ZM12.3058 17.3636H17.3636V12.3058H12.3058V17.3636ZM19 19V10.6694H10.6694V19H19Z" fill="#111111"/>
<mask id="mask0" mask-type="alpha" maskUnits="userSpaceOnUse" x="1" y="1" width="18" height="18">
<path fill-rule="evenodd" clip-rule="evenodd" d="M9.33058 9.33058V1H1V9.33058H9.33058ZM2.63636 7.69421V2.63636H7.69421V7.69421H2.63636ZM12.3058 2.63636V7.69421H17.3636V2.63636H12.3058ZM19 9.33058V1H10.6694V9.33058H19ZM2.63636 12.3058V17.3636H7.69421V12.3058H2.63636ZM9.33058 19V10.6694H1V19H9.33058ZM12.3058 17.3636H17.3636V12.3058H12.3058V17.3636ZM19 19V10.6694H10.6694V19H19Z" fill="white"/>
</mask>
<g mask="url(#mask0)">
<rect width="20" height="20" fill="black"/>
</g>
</svg>
