<svg width="12" height="12" viewBox="0 0 12 12" fill="none" xmlns="http://www.w3.org/2000/svg">
<path fill-rule="evenodd" clip-rule="evenodd" d="M10.9698 6.67128C12.3447 5.21375 12.3447 2.85049 10.9698 1.39296C9.59829 -0.0609366 7.37668 -0.0645698 6.00095 1.38206C4.62522 -0.0645698 2.40362 -0.0609366 1.03214 1.39296C-0.342775 2.85049 -0.342775 5.21375 1.03214 6.67128L5.6147 11.5303C5.82772 11.7561 6.17313 11.7561 6.38618 11.5303L10.9698 6.67128ZM10.1983 5.85349L6.00048 10.3036L1.8036 5.85354C0.854692 4.84761 0.854692 3.21663 1.80356 2.21075C2.75242 1.20487 4.29095 1.20487 5.23982 2.21075C5.35389 2.33168 5.45639 2.46511 5.54642 2.60892C5.7622 2.95361 6.23967 2.95361 6.45545 2.60892C6.54563 2.46485 6.64767 2.332 6.76204 2.21075C7.71091 1.20487 9.24944 1.20487 10.1983 2.21075C11.1472 3.21663 11.1472 4.84761 10.1983 5.85349Z" fill="#111111"/>
<mask id="mask0" mask-type="alpha" maskUnits="userSpaceOnUse" x="0" y="0" width="13" height="12">
<path fill-rule="evenodd" clip-rule="evenodd" d="M10.9698 6.67128C12.3447 5.21375 12.3447 2.85049 10.9698 1.39296C9.59829 -0.0609366 7.37668 -0.0645698 6.00095 1.38206C4.62522 -0.0645698 2.40362 -0.0609366 1.03214 1.39296C-0.342775 2.85049 -0.342775 5.21375 1.03214 6.67128L5.6147 11.5303C5.82772 11.7561 6.17313 11.7561 6.38618 11.5303L10.9698 6.67128ZM10.1983 5.85349L6.00048 10.3036L1.8036 5.85354C0.854692 4.84761 0.854692 3.21663 1.80356 2.21075C2.75242 1.20487 4.29095 1.20487 5.23982 2.21075C5.35389 2.33168 5.45639 2.46511 5.54642 2.60892C5.7622 2.95361 6.23967 2.95361 6.45545 2.60892C6.54563 2.46485 6.64767 2.332 6.76204 2.21075C7.71091 1.20487 9.24944 1.20487 10.1983 2.21075C11.1472 3.21663 11.1472 4.84761 10.1983 5.85349Z" fill="white"/>
</mask>
<g mask="url(#mask0)">
<g filter="url(#filter0_d)">
<rect width="12" height="12" fill="#999999"/>
</g>
</g>
<defs>
<filter id="filter0_d" x="-8" y="-3" width="28" height="28" filterUnits="userSpaceOnUse" color-interpolation-filters="sRGB">
<feFlood flood-opacity="0" result="BackgroundImageFix"/>
<feColorMatrix in="SourceAlpha" type="matrix" values="0 0 0 0 0 0 0 0 0 0 0 0 0 0 0 0 0 0 127 0"/>
<feOffset dy="5"/>
<feGaussianBlur stdDeviation="4"/>
<feColorMatrix type="matrix" values="0 0 0 0 0 0 0 0 0 0 0 0 0 0 0 0 0 0 0.139804 0"/>
<feBlend mode="normal" in2="BackgroundImageFix" result="effect1_dropShadow"/>
<feBlend mode="normal" in="SourceGraphic" in2="effect1_dropShadow" result="shape"/>
</filter>
</defs>
</svg>
<svg width="12" height="12" viewBox="0 0 12 12" fill="none" xmlns="http://www.w3.org/2000/svg">
<path fill-rule="evenodd" clip-rule="evenodd" d="M10.9698 6.67128C12.3447 5.21375 12.3447 2.85049 10.9698 1.39296C9.59829 -0.0609366 7.37668 -0.0645698 6.00095 1.38206C4.62522 -0.0645698 2.40362 -0.0609366 1.03214 1.39296C-0.342775 2.85049 -0.342775 5.21375 1.03214 6.67128L5.6147 11.5303C5.82772 11.7561 6.17313 11.7561 6.38618 11.5303L10.9698 6.67128ZM10.1983 5.85349L6.00048 10.3036L1.8036 5.85354C0.854692 4.84761 0.854692 3.21663 1.80356 2.21075C2.75242 1.20487 4.29095 1.20487 5.23982 2.21075C5.35389 2.33168 5.45639 2.46511 5.54642 2.60892C5.7622 2.95361 6.23967 2.95361 6.45545 2.60892C6.54563 2.46485 6.64767 2.332 6.76204 2.21075C7.71091 1.20487 9.24944 1.20487 10.1983 2.21075C11.1472 3.21663 11.1472 4.84761 10.1983 5.85349Z" fill="#111111"/>
<mask id="mask0" mask-type="alpha" maskUnits="userSpaceOnUse" x="0" y="0" width="13" height="12">
<path fill-rule="evenodd" clip-rule="evenodd" d="M10.9698 6.67128C12.3447 5.21375 12.3447 2.85049 10.9698 1.39296C9.59829 -0.0609366 7.37668 -0.0645698 6.00095 1.38206C4.62522 -0.0645698 2.40362 -0.0609366 1.03214 1.39296C-0.342775 2.85049 -0.342775 5.21375 1.03214 6.67128L5.6147 11.5303C5.82772 11.7561 6.17313 11.7561 6.38618 11.5303L10.9698 6.67128ZM10.1983 5.85349L6.00048 10.3036L1.8036 5.85354C0.854692 4.84761 0.854692 3.21663 1.80356 2.21075C2.75242 1.20487 4.29095 1.20487 5.23982 2.21075C5.35389 2.33168 5.45639 2.46511 5.54642 2.60892C5.7622 2.95361 6.23967 2.95361 6.45545 2.60892C6.54563 2.46485 6.64767 2.332 6.76204 2.21075C7.71091 1.20487 9.24944 1.20487 10.1983 2.21075C11.1472 3.21663 11.1472 4.84761 10.1983 5.85349Z" fill="white"/>
</mask>
<g mask="url(#mask0)">
<g filter="url(#filter0_d)">
<rect width="12" height="12" fill="#999999"/>
</g>
</g>
<defs>
<filter id="filter0_d" x="-8" y="-3" width="28" height="28" filterUnits="userSpaceOnUse" color-interpolation-filters="sRGB">
<feFlood flood-opacity="0" result="BackgroundImageFix"/>
<feColorMatrix in="SourceAlpha" type="matrix" values="0 0 0 0 0 0 0 0 0 0 0 0 0 0 0 0 0 0 127 0"/>
<feOffset dy="5"/>
<feGaussianBlur stdDeviation="4"/>
<feColorMatrix type="matrix" values="0 0 0 0 0 0 0 0 0 0 0 0 0 0 0 0 0 0 0.139804 0"/>
<feBlend mode="normal" in2="BackgroundImageFix" result="effect1_dropShadow"/>
<feBlend mode="normal" in="SourceGraphic" in2="effect1_dropShadow" result="shape"/>
</filter>
</defs>
</svg>
