<svg width="32" height="32" viewBox="0 0 32 32" fill="none" xmlns="http://www.w3.org/2000/svg">
<path fill-rule="evenodd" clip-rule="evenodd" d="M16 1.59998C15.2636 1.59998 14.6666 2.18608 14.6666 2.90907V6.83634C14.6666 7.55933 15.2636 8.14543 16 8.14543C16.7364 8.14543 17.3333 7.55933 17.3333 6.83634V2.90907C17.3333 2.18608 16.7364 1.59998 16 1.59998ZM4.65717 8.02381C4.13647 7.51258 4.13647 6.68371 4.65717 6.17248C5.17787 5.66125 6.02209 5.66125 6.54278 6.17248L9.34278 8.92157C9.86348 9.4328 9.86348 10.2617 9.34278 10.7729C8.82209 11.2841 7.97787 11.2841 7.45717 10.7729L4.65717 8.02381ZM21.2649 12.9678C21.0834 12.4333 20.5739 12.0727 20 12.0727H12C11.4261 12.0727 10.9166 12.4333 10.7351 12.9678L8.37235 19.9272H5.3333C4.75939 19.9272 4.24988 20.2878 4.06839 20.8224L1.40172 28.6769C1.11393 29.5246 1.75656 30.4 2.66664 30.4H16H29.3333C30.2434 30.4 30.886 29.5246 30.5982 28.6769L27.9316 20.8224C27.7501 20.2878 27.2406 19.9272 26.6667 19.9272H23.6277L21.2649 12.9678ZM22.6754 22.5454C23.5809 22.5399 24.2185 21.6673 23.9316 20.8224L23.6277 19.9272H20.8167L19.039 14.6909H12.961L11.1832 19.9272H8.37235L8.06844 20.8224C7.78157 21.6673 8.41918 22.5399 9.32465 22.5454H6.29436L4.51658 27.7818H14.1501L12.3723 22.5454H15.1832L16 24.9512L14.7351 28.6769C14.4473 29.5246 15.0899 30.4 16 30.4C16.91 30.4 17.5527 29.5246 17.2649 28.6769L16 24.9512L16.8168 22.5454H19.6276L17.8499 27.7818H27.4834L25.7056 22.5454H22.6754ZM22.6754 22.5454L22.6667 22.5454H19.6276L19.6276 22.5454H22.6754ZM18.6602 19.9273H20.8168L20.8167 19.9272H18.6667L18.6602 19.9273ZM13.3398 19.9273L13.3333 19.9272H11.1832L11.1832 19.9273H13.3398ZM13.3398 19.9273H18.6602C18.0889 19.9299 17.5826 20.2898 17.4017 20.8224L16.8168 22.5454H15.1832L14.5982 20.8224C14.4174 20.2898 13.911 19.9299 13.3398 19.9273ZM12.3723 22.5454H9.33335L9.32465 22.5454H12.3723L12.3723 22.5454ZM0 17.3091C0 18.0321 0.596954 18.6182 1.33333 18.6182H5.33333C6.06971 18.6182 6.66667 18.0321 6.66667 17.3091C6.66667 16.5861 6.06971 16 5.33333 16H1.33333C0.596954 16 0 16.5861 0 17.3091ZM25.4572 6.17248C25.9779 5.66125 26.8221 5.66125 27.3428 6.17248C27.8635 6.68371 27.8635 7.51258 27.3428 8.02381L24.5428 10.7729C24.0221 11.2841 23.1779 11.2841 22.6572 10.7729C22.1365 10.2617 22.1365 9.4328 22.6572 8.92157L25.4572 6.17248ZM32 17.3091C32 16.5861 31.4031 16 30.6667 16H26.6667C25.9303 16 25.3334 16.5861 25.3334 17.3091C25.3334 18.0321 25.9303 18.6182 26.6667 18.6182H30.6667C31.4031 18.6182 32 18.0321 32 17.3091Z" fill="#111111"/>
<mask id="mask0" mask-type="alpha" maskUnits="userSpaceOnUse" x="0" y="1" width="32" height="30">
<path fill-rule="evenodd" clip-rule="evenodd" d="M16 1.59998C15.2636 1.59998 14.6666 2.18608 14.6666 2.90907V6.83634C14.6666 7.55933 15.2636 8.14543 16 8.14543C16.7364 8.14543 17.3333 7.55933 17.3333 6.83634V2.90907C17.3333 2.18608 16.7364 1.59998 16 1.59998ZM4.65717 8.02381C4.13647 7.51258 4.13647 6.68371 4.65717 6.17248C5.17787 5.66125 6.02209 5.66125 6.54278 6.17248L9.34278 8.92157C9.86348 9.4328 9.86348 10.2617 9.34278 10.7729C8.82209 11.2841 7.97787 11.2841 7.45717 10.7729L4.65717 8.02381ZM21.2649 12.9678C21.0834 12.4333 20.5739 12.0727 20 12.0727H12C11.4261 12.0727 10.9166 12.4333 10.7351 12.9678L8.37235 19.9272H5.3333C4.75939 19.9272 4.24988 20.2878 4.06839 20.8224L1.40172 28.6769C1.11393 29.5246 1.75656 30.4 2.66664 30.4H16H29.3333C30.2434 30.4 30.886 29.5246 30.5982 28.6769L27.9316 20.8224C27.7501 20.2878 27.2406 19.9272 26.6667 19.9272H23.6277L21.2649 12.9678ZM22.6754 22.5454C23.5809 22.5399 24.2185 21.6673 23.9316 20.8224L23.6277 19.9272H20.8167L19.039 14.6909H12.961L11.1832 19.9272H8.37235L8.06844 20.8224C7.78157 21.6673 8.41918 22.5399 9.32465 22.5454H6.29436L4.51658 27.7818H14.1501L12.3723 22.5454H15.1832L16 24.9512L14.7351 28.6769C14.4473 29.5246 15.0899 30.4 16 30.4C16.91 30.4 17.5527 29.5246 17.2649 28.6769L16 24.9512L16.8168 22.5454H19.6276L17.8499 27.7818H27.4834L25.7056 22.5454H22.6754ZM22.6754 22.5454L22.6667 22.5454H19.6276L19.6276 22.5454H22.6754ZM18.6602 19.9273H20.8168L20.8167 19.9272H18.6667L18.6602 19.9273ZM13.3398 19.9273L13.3333 19.9272H11.1832L11.1832 19.9273H13.3398ZM13.3398 19.9273H18.6602C18.0889 19.9299 17.5826 20.2898 17.4017 20.8224L16.8168 22.5454H15.1832L14.5982 20.8224C14.4174 20.2898 13.911 19.9299 13.3398 19.9273ZM12.3723 22.5454H9.33335L9.32465 22.5454H12.3723L12.3723 22.5454ZM0 17.3091C0 18.0321 0.596954 18.6182 1.33333 18.6182H5.33333C6.06971 18.6182 6.66667 18.0321 6.66667 17.3091C6.66667 16.5861 6.06971 16 5.33333 16H1.33333C0.596954 16 0 16.5861 0 17.3091ZM25.4572 6.17248C25.9779 5.66125 26.8221 5.66125 27.3428 6.17248C27.8635 6.68371 27.8635 7.51258 27.3428 8.02381L24.5428 10.7729C24.0221 11.2841 23.1779 11.2841 22.6572 10.7729C22.1365 10.2617 22.1365 9.4328 22.6572 8.92157L25.4572 6.17248ZM32 17.3091C32 16.5861 31.4031 16 30.6667 16H26.6667C25.9303 16 25.3334 16.5861 25.3334 17.3091C25.3334 18.0321 25.9303 18.6182 26.6667 18.6182H30.6667C31.4031 18.6182 32 18.0321 32 17.3091Z" fill="white"/>
</mask>
<g mask="url(#mask0)">
<rect width="32" height="32" fill="black"/>
</g>
</svg>
