<svg width="32" height="32" viewBox="0 0 32 32" fill="none" xmlns="http://www.w3.org/2000/svg">
<path fill-rule="evenodd" clip-rule="evenodd" d="M16 0C15.2636 0 14.6666 0.596954 14.6666 1.33333V2.73251C8.36742 3.35794 3.3579 8.36746 2.73248 14.6667H1.33333C0.596954 14.6667 0 15.2636 0 16C0 16.7364 0.596954 17.3333 1.33333 17.3333H2.73248C3.3579 23.6326 8.36742 28.6421 14.6666 29.2675V30.6667C14.6666 31.403 15.2636 32 16 32C16.7364 32 17.3333 31.403 17.3333 30.6667V29.2675C23.6325 28.6421 28.642 23.6326 29.2675 17.3333H30.6667C31.403 17.3333 32 16.7364 32 16C32 15.2636 31.403 14.6667 30.6667 14.6667H29.2675C28.642 8.36746 23.6325 3.35794 17.3333 2.73251V1.33333C17.3333 0.596954 16.7364 0 16 0ZM17.3333 5.41584V2.73251C16.8948 2.68897 16.45 2.66668 16 2.66668C15.55 2.66668 15.1052 2.68897 14.6666 2.73251V5.41585C9.8417 6.01754 6.01753 9.84173 5.41588 14.6667H2.73248C2.68893 15.1052 2.66664 15.55 2.66664 16C2.66664 16.45 2.68893 16.8948 2.73248 17.3333H5.41589C6.01756 22.1583 9.84172 25.9824 14.6666 26.5841V29.2675C15.1052 29.3111 15.55 29.3333 16 29.3333C16.45 29.3333 16.8948 29.3111 17.3333 29.2675V26.5841C22.1583 25.9825 25.9825 22.1583 26.5842 17.3333H29.2675C29.311 16.8948 29.3333 16.45 29.3333 16C29.3333 15.55 29.311 15.1052 29.2675 14.6667H26.5842C25.9825 9.84169 22.1583 6.01749 17.3333 5.41584ZM17.3333 5.41584V6.66667C17.3333 7.40305 16.7364 8 16 8C15.2636 8 14.6666 7.40305 14.6666 6.66667V5.41585C15.1034 5.36138 15.5485 5.33332 16 5.33332C16.4516 5.33332 16.8965 5.36138 17.3333 5.41584ZM26.5842 14.6667C26.6386 15.1035 26.6667 15.5484 26.6667 16C26.6667 16.4515 26.6386 16.8965 26.5842 17.3333H25.3333C24.597 17.3333 24 16.7364 24 16C24 15.2636 24.597 14.6667 25.3333 14.6667H26.5842ZM17.3333 26.5841V25.3333C17.3333 24.597 16.7364 24 16 24C15.2636 24 14.6666 24.597 14.6666 25.3333V26.5841C15.1034 26.6386 15.5485 26.6667 16 26.6667C16.4516 26.6667 16.8965 26.6386 17.3333 26.5841ZM5.41589 17.3333C5.36142 16.8965 5.33336 16.4515 5.33336 16C5.33336 15.5484 5.36141 15.1035 5.41588 14.6667H6.66667C7.40305 14.6667 8 15.2636 8 16C8 16.7364 7.40305 17.3333 6.66667 17.3333H5.41589ZM13.3334 16C13.3334 17.4727 14.5273 18.6667 16 18.6667C17.4728 18.6667 18.6667 17.4727 18.6667 16C18.6667 14.5272 17.4728 13.3333 16 13.3333C14.5273 13.3333 13.3334 14.5272 13.3334 16Z" fill="#111111"/>
<mask id="mask0" mask-type="alpha" maskUnits="userSpaceOnUse" x="0" y="0" width="32" height="32">
<path fill-rule="evenodd" clip-rule="evenodd" d="M16 0C15.2636 0 14.6666 0.596954 14.6666 1.33333V2.73251C8.36742 3.35794 3.3579 8.36746 2.73248 14.6667H1.33333C0.596954 14.6667 0 15.2636 0 16C0 16.7364 0.596954 17.3333 1.33333 17.3333H2.73248C3.3579 23.6326 8.36742 28.6421 14.6666 29.2675V30.6667C14.6666 31.403 15.2636 32 16 32C16.7364 32 17.3333 31.403 17.3333 30.6667V29.2675C23.6325 28.6421 28.642 23.6326 29.2675 17.3333H30.6667C31.403 17.3333 32 16.7364 32 16C32 15.2636 31.403 14.6667 30.6667 14.6667H29.2675C28.642 8.36746 23.6325 3.35794 17.3333 2.73251V1.33333C17.3333 0.596954 16.7364 0 16 0ZM17.3333 5.41584V2.73251C16.8948 2.68897 16.45 2.66668 16 2.66668C15.55 2.66668 15.1052 2.68897 14.6666 2.73251V5.41585C9.8417 6.01754 6.01753 9.84173 5.41588 14.6667H2.73248C2.68893 15.1052 2.66664 15.55 2.66664 16C2.66664 16.45 2.68893 16.8948 2.73248 17.3333H5.41589C6.01756 22.1583 9.84172 25.9824 14.6666 26.5841V29.2675C15.1052 29.3111 15.55 29.3333 16 29.3333C16.45 29.3333 16.8948 29.3111 17.3333 29.2675V26.5841C22.1583 25.9825 25.9825 22.1583 26.5842 17.3333H29.2675C29.311 16.8948 29.3333 16.45 29.3333 16C29.3333 15.55 29.311 15.1052 29.2675 14.6667H26.5842C25.9825 9.84169 22.1583 6.01749 17.3333 5.41584ZM17.3333 5.41584V6.66667C17.3333 7.40305 16.7364 8 16 8C15.2636 8 14.6666 7.40305 14.6666 6.66667V5.41585C15.1034 5.36138 15.5485 5.33332 16 5.33332C16.4516 5.33332 16.8965 5.36138 17.3333 5.41584ZM26.5842 14.6667C26.6386 15.1035 26.6667 15.5484 26.6667 16C26.6667 16.4515 26.6386 16.8965 26.5842 17.3333H25.3333C24.597 17.3333 24 16.7364 24 16C24 15.2636 24.597 14.6667 25.3333 14.6667H26.5842ZM17.3333 26.5841V25.3333C17.3333 24.597 16.7364 24 16 24C15.2636 24 14.6666 24.597 14.6666 25.3333V26.5841C15.1034 26.6386 15.5485 26.6667 16 26.6667C16.4516 26.6667 16.8965 26.6386 17.3333 26.5841ZM5.41589 17.3333C5.36142 16.8965 5.33336 16.4515 5.33336 16C5.33336 15.5484 5.36141 15.1035 5.41588 14.6667H6.66667C7.40305 14.6667 8 15.2636 8 16C8 16.7364 7.40305 17.3333 6.66667 17.3333H5.41589ZM13.3334 16C13.3334 17.4727 14.5273 18.6667 16 18.6667C17.4728 18.6667 18.6667 17.4727 18.6667 16C18.6667 14.5272 17.4728 13.3333 16 13.3333C14.5273 13.3333 13.3334 14.5272 13.3334 16Z" fill="white"/>
</mask>
<g mask="url(#mask0)">
<rect width="32" height="32" fill="black"/>
</g>
</svg>
