<svg width="32" height="32" viewBox="0 0 32 32" fill="none" xmlns="http://www.w3.org/2000/svg">
<path fill-rule="evenodd" clip-rule="evenodd" d="M4.92767 9.01958C5.57033 9.35688 6.35981 9.09977 6.69103 8.44532C8.48717 4.89633 12.0795 2.66623 16.0001 2.66623C19.9208 2.66623 23.5131 4.89633 25.3092 8.44532C25.6404 9.09977 26.4299 9.35688 27.0726 9.01958C27.7152 8.68228 27.9677 7.87831 27.6365 7.22386C25.3913 2.78762 20.9009 0 16.0001 0C11.0993 0 6.60894 2.78762 4.36376 7.22386C4.03254 7.87831 4.28501 8.68228 4.92767 9.01958ZM12.5979 11.3364C12.2366 11.9741 11.436 12.1928 10.8098 11.8248C10.1836 11.4568 9.96889 10.6415 10.3303 10.0038C11.4993 7.9408 13.6605 6.66984 15.9994 6.66984C18.3384 6.66984 20.4996 7.9408 21.6686 10.0038C22.03 10.6415 21.8153 11.4568 21.1891 11.8248C20.5629 12.1928 19.7623 11.9741 19.401 11.3364C18.6995 10.0987 17.4028 9.33608 15.9994 9.33608C14.5961 9.33608 13.2994 10.0987 12.5979 11.3364ZM2.84443 20.5649C2.35268 21.1659 2.00825 21.6411 1.81996 21.9287C1.52681 22.3765 1.52681 22.9599 1.81996 23.4076C2.00825 23.6953 2.35268 24.1705 2.84443 24.7714C3.65585 25.763 4.59579 26.7532 5.65724 27.6797C8.73796 30.3688 12.2086 32 16.0001 32C19.7916 32 23.2622 30.3688 26.343 27.6797C27.4044 26.7532 28.3443 25.763 29.1558 24.7714C29.6475 24.1705 29.9919 23.6953 30.1802 23.4076C30.4734 22.9599 30.4734 22.3765 30.1802 21.9287C29.9919 21.6411 29.6475 21.1659 29.1558 20.5649C28.3443 19.5734 27.4044 18.5832 26.343 17.6566C23.2622 14.9676 19.7916 13.3363 16.0001 13.3363C12.2086 13.3363 8.73796 14.9676 5.65724 17.6566C4.59579 18.5832 3.65585 19.5734 2.84443 20.5649ZM7.36111 25.6554C6.41802 24.8322 5.57842 23.9477 4.85575 23.0646C4.73986 22.9229 4.63414 22.7904 4.53881 22.6682C4.63414 22.546 4.73986 22.4135 4.85575 22.2718C5.57842 21.3887 6.41802 20.5042 7.36111 19.681C10.0077 17.3709 12.9189 16.0026 16.0001 16.0026C19.0813 16.0026 21.9925 17.3709 24.639 19.681C25.5821 20.5042 26.4217 21.3887 27.1444 22.2718C27.2603 22.4135 27.366 22.546 27.4613 22.6682C27.366 22.7904 27.2603 22.9229 27.1444 23.0646C26.4217 23.9477 25.5821 24.8322 24.639 25.6554C21.9925 27.9655 19.0813 29.3338 16.0001 29.3338C12.9189 29.3338 10.0077 27.9655 7.36111 25.6554ZM16.0001 26.6675C13.8311 26.6675 12.0728 24.877 12.0728 22.6682C12.0728 20.4594 13.8311 18.6688 16.0001 18.6688C18.169 18.6688 19.9273 20.4594 19.9273 22.6682C19.9273 24.877 18.169 26.6675 16.0001 26.6675ZM17.3092 22.6682C17.3092 23.4044 16.7231 24.0013 16.0001 24.0013C15.2771 24.0013 14.691 23.4044 14.691 22.6682C14.691 21.9319 15.2771 21.3351 16.0001 21.3351C16.7231 21.3351 17.3092 21.9319 17.3092 22.6682Z" fill="#111111"/>
<mask id="mask0" mask-type="alpha" maskUnits="userSpaceOnUse" x="1" y="0" width="30" height="32">
<path fill-rule="evenodd" clip-rule="evenodd" d="M4.92767 9.01958C5.57033 9.35688 6.35981 9.09977 6.69103 8.44532C8.48717 4.89633 12.0795 2.66623 16.0001 2.66623C19.9208 2.66623 23.5131 4.89633 25.3092 8.44532C25.6404 9.09977 26.4299 9.35688 27.0726 9.01958C27.7152 8.68228 27.9677 7.87831 27.6365 7.22386C25.3913 2.78762 20.9009 0 16.0001 0C11.0993 0 6.60894 2.78762 4.36376 7.22386C4.03254 7.87831 4.28501 8.68228 4.92767 9.01958ZM12.5979 11.3364C12.2366 11.9741 11.436 12.1928 10.8098 11.8248C10.1836 11.4568 9.96889 10.6415 10.3303 10.0038C11.4993 7.9408 13.6605 6.66984 15.9994 6.66984C18.3384 6.66984 20.4996 7.9408 21.6686 10.0038C22.03 10.6415 21.8153 11.4568 21.1891 11.8248C20.5629 12.1928 19.7623 11.9741 19.401 11.3364C18.6995 10.0987 17.4028 9.33608 15.9994 9.33608C14.5961 9.33608 13.2994 10.0987 12.5979 11.3364ZM2.84443 20.5649C2.35268 21.1659 2.00825 21.6411 1.81996 21.9287C1.52681 22.3765 1.52681 22.9599 1.81996 23.4076C2.00825 23.6953 2.35268 24.1705 2.84443 24.7714C3.65585 25.763 4.59579 26.7532 5.65724 27.6797C8.73796 30.3688 12.2086 32 16.0001 32C19.7916 32 23.2622 30.3688 26.343 27.6797C27.4044 26.7532 28.3443 25.763 29.1558 24.7714C29.6475 24.1705 29.9919 23.6953 30.1802 23.4076C30.4734 22.9599 30.4734 22.3765 30.1802 21.9287C29.9919 21.6411 29.6475 21.1659 29.1558 20.5649C28.3443 19.5734 27.4044 18.5832 26.343 17.6566C23.2622 14.9676 19.7916 13.3363 16.0001 13.3363C12.2086 13.3363 8.73796 14.9676 5.65724 17.6566C4.59579 18.5832 3.65585 19.5734 2.84443 20.5649ZM7.36111 25.6554C6.41802 24.8322 5.57842 23.9477 4.85575 23.0646C4.73986 22.9229 4.63414 22.7904 4.53881 22.6682C4.63414 22.546 4.73986 22.4135 4.85575 22.2718C5.57842 21.3887 6.41802 20.5042 7.36111 19.681C10.0077 17.3709 12.9189 16.0026 16.0001 16.0026C19.0813 16.0026 21.9925 17.3709 24.639 19.681C25.5821 20.5042 26.4217 21.3887 27.1444 22.2718C27.2603 22.4135 27.366 22.546 27.4613 22.6682C27.366 22.7904 27.2603 22.9229 27.1444 23.0646C26.4217 23.9477 25.5821 24.8322 24.639 25.6554C21.9925 27.9655 19.0813 29.3338 16.0001 29.3338C12.9189 29.3338 10.0077 27.9655 7.36111 25.6554ZM16.0001 26.6675C13.8311 26.6675 12.0728 24.877 12.0728 22.6682C12.0728 20.4594 13.8311 18.6688 16.0001 18.6688C18.169 18.6688 19.9273 20.4594 19.9273 22.6682C19.9273 24.877 18.169 26.6675 16.0001 26.6675ZM17.3092 22.6682C17.3092 23.4044 16.7231 24.0013 16.0001 24.0013C15.2771 24.0013 14.691 23.4044 14.691 22.6682C14.691 21.9319 15.2771 21.3351 16.0001 21.3351C16.7231 21.3351 17.3092 21.9319 17.3092 22.6682Z" fill="white"/>
</mask>
<g mask="url(#mask0)">
<rect width="32" height="32" fill="black"/>
</g>
</svg>
