<svg width="30" height="30" viewBox="0 0 30 30" fill="none" xmlns="http://www.w3.org/2000/svg">
<path fill-rule="evenodd" clip-rule="evenodd" d="M15 0C19.4934 0 23.0439 3.33779 23.0439 7.56198V9.91736H6.95603V7.56198C6.95603 3.33779 10.5066 0 15 0ZM8.40412 12.6446C7.60414 12.6434 6.95603 12.0333 6.95603 11.281V9.91736H4.45055C3.64943 9.91736 3 10.5279 3 11.281V28.6364C3 29.3895 3.64943 30 4.45055 30H25.5494C26.3506 30 27 29.3895 27 28.6364V11.281C27 10.5279 26.3506 9.91736 25.5494 9.91736H23.0439V11.281C23.0439 12.0333 22.3958 12.6434 21.5958 12.6446H8.40412ZM8.40412 12.6446H5.90111V27.2727H24.0989V12.6446H21.5958L21.5934 12.6446H8.40658L8.40412 12.6446ZM20.1428 9.91735V7.56198C20.1428 4.84402 17.8912 2.72727 15 2.72727C12.1088 2.72727 9.85713 4.84402 9.85713 7.56198V9.91735H20.1428ZM10.9121 18.719C10.9121 20.3612 12.0078 21.7628 13.5494 22.313V23.6777C13.5494 24.4308 14.1989 25.0413 15 25.0413C15.8011 25.0413 16.4505 24.4308 16.4505 23.6777V22.313C17.9922 21.7629 19.0879 20.3612 19.0879 18.719C19.0879 16.5966 17.2577 14.876 15 14.876C12.7423 14.876 10.9121 16.5966 10.9121 18.719ZM16.4505 22.313V21.1983C16.4505 20.4452 15.8011 19.8347 15 19.8347C14.1989 19.8347 13.5494 20.4452 13.5494 21.1983V22.313C14.0003 22.4739 14.4892 22.562 15 22.562C15.5108 22.562 15.9998 22.4739 16.4505 22.313ZM15 19.8347C15.6554 19.8347 16.1868 19.3352 16.1868 18.719C16.1868 18.1028 15.6554 17.6033 15 17.6033C14.3445 17.6033 13.8132 18.1028 13.8132 18.719C13.8132 19.3352 14.3445 19.8347 15 19.8347Z" fill="#111111"/>
<mask id="mask0" mask-type="alpha" maskUnits="userSpaceOnUse" x="3" y="0" width="24" height="30">
<path fill-rule="evenodd" clip-rule="evenodd" d="M15 0C19.4934 0 23.0439 3.33779 23.0439 7.56198V9.91736H6.95603V7.56198C6.95603 3.33779 10.5066 0 15 0ZM8.40412 12.6446C7.60414 12.6434 6.95603 12.0333 6.95603 11.281V9.91736H4.45055C3.64943 9.91736 3 10.5279 3 11.281V28.6364C3 29.3895 3.64943 30 4.45055 30H25.5494C26.3506 30 27 29.3895 27 28.6364V11.281C27 10.5279 26.3506 9.91736 25.5494 9.91736H23.0439V11.281C23.0439 12.0333 22.3958 12.6434 21.5958 12.6446H8.40412ZM8.40412 12.6446H5.90111V27.2727H24.0989V12.6446H21.5958L21.5934 12.6446H8.40658L8.40412 12.6446ZM20.1428 9.91735V7.56198C20.1428 4.84402 17.8912 2.72727 15 2.72727C12.1088 2.72727 9.85713 4.84402 9.85713 7.56198V9.91735H20.1428ZM10.9121 18.719C10.9121 20.3612 12.0078 21.7628 13.5494 22.313V23.6777C13.5494 24.4308 14.1989 25.0413 15 25.0413C15.8011 25.0413 16.4505 24.4308 16.4505 23.6777V22.313C17.9922 21.7629 19.0879 20.3612 19.0879 18.719C19.0879 16.5966 17.2577 14.876 15 14.876C12.7423 14.876 10.9121 16.5966 10.9121 18.719ZM16.4505 22.313V21.1983C16.4505 20.4452 15.8011 19.8347 15 19.8347C14.1989 19.8347 13.5494 20.4452 13.5494 21.1983V22.313C14.0003 22.4739 14.4892 22.562 15 22.562C15.5108 22.562 15.9998 22.4739 16.4505 22.313ZM15 19.8347C15.6554 19.8347 16.1868 19.3352 16.1868 18.719C16.1868 18.1028 15.6554 17.6033 15 17.6033C14.3445 17.6033 13.8132 18.1028 13.8132 18.719C13.8132 19.3352 14.3445 19.8347 15 19.8347Z" fill="white"/>
</mask>
<g mask="url(#mask0)">
<rect width="30" height="30" fill="#FEB53E"/>
</g>
</svg>
