<svg width="30" height="30" viewBox="0 0 30 30" fill="none" xmlns="http://www.w3.org/2000/svg">
<path fill-rule="evenodd" clip-rule="evenodd" d="M11.157 4.17568H1.36364C0.610521 4.17568 0 3.57671 0 2.83784C0 2.09897 0.610521 1.5 1.36364 1.5H12.5207C13.2738 1.5 13.8843 2.09897 13.8843 2.83784V6.36486H12.5206C11.7696 6.36486 11.1603 6.9606 11.157 7.69671V4.17568ZM13.6379 23.6351H12.5206C11.7675 23.6351 11.157 23.0362 11.157 22.2973V7.70269L11.157 7.69671V7.7027C11.157 8.44157 11.7675 9.04054 12.5207 9.04054C13.2738 9.04054 13.8843 8.44157 13.8843 7.7027V6.36486H22.438C23.0637 6.36486 23.6092 6.78266 23.7609 7.37822L24.8485 11.6461L29.2462 13.8034C29.7082 14.03 30 14.4933 30 15V22.2973C30 23.0362 29.3895 23.6351 28.6364 23.6351H23.8002C23.8012 23.5947 23.8017 23.5542 23.8017 23.5135C23.8017 22.58 23.5402 21.7065 23.0852 20.9594H27.2727V15.8268L23.0678 13.7642C22.7118 13.5895 22.4513 13.2709 22.3548 12.892L21.3733 9.04053H13.8843V20.9594H14.3528C13.8978 21.7065 13.6364 22.58 13.6364 23.5135C13.6364 23.5542 13.6369 23.5947 13.6379 23.6351ZM16.4895 22.7661C16.2959 23.2737 15.797 23.6351 15.212 23.6351H13.6379C13.7037 26.3329 15.9534 28.5 18.719 28.5C21.4847 28.5 23.7344 26.3329 23.8002 23.6351H22.226C21.6408 23.6351 21.1417 23.2734 20.9482 22.7655C20.943 22.7506 20.9377 22.7357 20.9322 22.7209C20.8869 22.5878 20.8624 22.4453 20.8624 22.2973C20.8624 21.5584 21.4729 20.9594 22.226 20.9594H23.0852C22.1979 19.5026 20.5746 18.527 18.719 18.527C16.8634 18.527 15.2401 19.5026 14.3528 20.9594H15.212C15.9651 20.9594 16.5756 21.5584 16.5756 22.2973C16.5756 22.4453 16.5511 22.5877 16.5059 22.7207C16.5003 22.7358 16.4948 22.7509 16.4895 22.7661ZM16.4895 22.7661C16.4953 22.7511 16.5007 22.736 16.5059 22.7207C16.8356 21.835 17.702 21.2027 18.719 21.2027C19.736 21.2027 20.6025 21.8351 20.9322 22.7209C20.9373 22.7359 20.9426 22.7508 20.9482 22.7655C21.03 23.0001 21.0744 23.2517 21.0744 23.5135C21.0744 24.7897 20.0198 25.8243 18.719 25.8243C17.4182 25.8243 16.3636 24.7897 16.3636 23.5135C16.3636 23.2519 16.4079 23.0005 16.4895 22.7661ZM8.92559 15C8.92559 14.2611 8.31507 13.6622 7.56195 13.6622H3.84294C3.08983 13.6622 2.47931 14.2611 2.47931 15C2.47931 15.7389 3.08983 16.3378 3.84294 16.3378H7.56195C8.31507 16.3378 8.92559 15.7389 8.92559 15ZM8.92562 21.0811C8.92562 20.3422 8.3151 19.7432 7.56198 19.7432H6.32231C5.5692 19.7432 4.95868 20.3422 4.95868 21.0811C4.95868 21.82 5.5692 22.4189 6.32231 22.4189H7.56198C8.3151 22.4189 8.92562 21.82 8.92562 21.0811ZM0 8.91893C0 9.6578 0.610521 10.2568 1.36364 10.2568H7.56198C8.3151 10.2568 8.92562 9.6578 8.92562 8.91893C8.92562 8.18006 8.3151 7.58109 7.56198 7.58109H1.36364C0.610521 7.58109 0 8.18006 0 8.91893ZM21.3223 13.7838C21.3223 13.0449 20.7118 12.4459 19.9587 12.4459H18.843V11.3513C18.843 10.6125 18.2324 10.0135 17.4793 10.0135C16.7262 10.0135 16.1157 10.6125 16.1157 11.3513V13.7838C16.1157 14.5226 16.7262 15.1216 17.4793 15.1216H19.9587C20.7118 15.1216 21.3223 14.5226 21.3223 13.7838Z" fill="#111111"/>
<mask id="mask0" mask-type="alpha" maskUnits="userSpaceOnUse" x="0" y="1" width="30" height="28">
<path fill-rule="evenodd" clip-rule="evenodd" d="M11.157 4.17568H1.36364C0.610521 4.17568 0 3.57671 0 2.83784C0 2.09897 0.610521 1.5 1.36364 1.5H12.5207C13.2738 1.5 13.8843 2.09897 13.8843 2.83784V6.36486H12.5206C11.7696 6.36486 11.1603 6.9606 11.157 7.69671V4.17568ZM13.6379 23.6351H12.5206C11.7675 23.6351 11.157 23.0362 11.157 22.2973V7.70269L11.157 7.69671V7.7027C11.157 8.44157 11.7675 9.04054 12.5207 9.04054C13.2738 9.04054 13.8843 8.44157 13.8843 7.7027V6.36486H22.438C23.0637 6.36486 23.6092 6.78266 23.7609 7.37822L24.8485 11.6461L29.2462 13.8034C29.7082 14.03 30 14.4933 30 15V22.2973C30 23.0362 29.3895 23.6351 28.6364 23.6351H23.8002C23.8012 23.5947 23.8017 23.5542 23.8017 23.5135C23.8017 22.58 23.5402 21.7065 23.0852 20.9594H27.2727V15.8268L23.0678 13.7642C22.7118 13.5895 22.4513 13.2709 22.3548 12.892L21.3733 9.04053H13.8843V20.9594H14.3528C13.8978 21.7065 13.6364 22.58 13.6364 23.5135C13.6364 23.5542 13.6369 23.5947 13.6379 23.6351ZM16.4895 22.7661C16.2959 23.2737 15.797 23.6351 15.212 23.6351H13.6379C13.7037 26.3329 15.9534 28.5 18.719 28.5C21.4847 28.5 23.7344 26.3329 23.8002 23.6351H22.226C21.6408 23.6351 21.1417 23.2734 20.9482 22.7655C20.943 22.7506 20.9377 22.7357 20.9322 22.7209C20.8869 22.5878 20.8624 22.4453 20.8624 22.2973C20.8624 21.5584 21.4729 20.9594 22.226 20.9594H23.0852C22.1979 19.5026 20.5746 18.527 18.719 18.527C16.8634 18.527 15.2401 19.5026 14.3528 20.9594H15.212C15.9651 20.9594 16.5756 21.5584 16.5756 22.2973C16.5756 22.4453 16.5511 22.5877 16.5059 22.7207C16.5003 22.7358 16.4948 22.7509 16.4895 22.7661ZM16.4895 22.7661C16.4953 22.7511 16.5007 22.736 16.5059 22.7207C16.8356 21.835 17.702 21.2027 18.719 21.2027C19.736 21.2027 20.6025 21.8351 20.9322 22.7209C20.9373 22.7359 20.9426 22.7508 20.9482 22.7655C21.03 23.0001 21.0744 23.2517 21.0744 23.5135C21.0744 24.7897 20.0198 25.8243 18.719 25.8243C17.4182 25.8243 16.3636 24.7897 16.3636 23.5135C16.3636 23.2519 16.4079 23.0005 16.4895 22.7661ZM8.92559 15C8.92559 14.2611 8.31507 13.6622 7.56195 13.6622H3.84294C3.08983 13.6622 2.47931 14.2611 2.47931 15C2.47931 15.7389 3.08983 16.3378 3.84294 16.3378H7.56195C8.31507 16.3378 8.92559 15.7389 8.92559 15ZM8.92562 21.0811C8.92562 20.3422 8.3151 19.7432 7.56198 19.7432H6.32231C5.5692 19.7432 4.95868 20.3422 4.95868 21.0811C4.95868 21.82 5.5692 22.4189 6.32231 22.4189H7.56198C8.3151 22.4189 8.92562 21.82 8.92562 21.0811ZM0 8.91893C0 9.6578 0.610521 10.2568 1.36364 10.2568H7.56198C8.3151 10.2568 8.92562 9.6578 8.92562 8.91893C8.92562 8.18006 8.3151 7.58109 7.56198 7.58109H1.36364C0.610521 7.58109 0 8.18006 0 8.91893ZM21.3223 13.7838C21.3223 13.0449 20.7118 12.4459 19.9587 12.4459H18.843V11.3513C18.843 10.6125 18.2324 10.0135 17.4793 10.0135C16.7262 10.0135 16.1157 10.6125 16.1157 11.3513V13.7838C16.1157 14.5226 16.7262 15.1216 17.4793 15.1216H19.9587C20.7118 15.1216 21.3223 14.5226 21.3223 13.7838Z" fill="white"/>
</mask>
<g mask="url(#mask0)">
<rect width="30" height="30" fill="white"/>
</g>
</svg>
