<svg width="30" height="30" viewBox="0 0 30 30" fill="none" xmlns="http://www.w3.org/2000/svg">
<path fill-rule="evenodd" clip-rule="evenodd" d="M4.95868 19.1882H1.36364C0.610521 19.1882 0 18.6151 0 17.9082V2.78007C0 2.07311 0.610521 1.5 1.36364 1.5H23.6777C24.4308 1.5 25.0413 2.07311 25.0413 2.78007V17.9082C25.0413 18.6151 24.4308 19.1882 23.6777 19.1882H15.437L7.11491 24.7683C6.21236 25.3735 4.95868 24.7678 4.95868 23.7267V19.1882ZM27.2727 7.43488C27.2727 6.72791 27.8833 6.15481 28.6364 6.15481C29.3895 6.15481 30 6.72791 30 7.43488V22.563C30 23.2699 29.3895 23.8431 28.6364 23.8431H25.0413V27.2178C25.0413 28.2402 23.8275 28.85 22.9213 28.2829L15.8268 23.8431H15C14.2469 23.8431 13.6364 23.2699 13.6364 22.563C13.6364 21.856 14.2469 21.2829 15 21.2829H16.2397C16.5089 21.2829 16.7721 21.3577 16.9961 21.4979L22.3141 24.8259V22.563C22.3141 21.856 22.9246 21.2829 23.6777 21.2829H27.2727V7.43488ZM2.7273 4.06015H22.3141V16.6281H15C14.7158 16.6281 14.4387 16.7115 14.2074 16.8666L7.68598 21.2393V17.9082C7.68598 17.2012 7.07546 16.6281 6.32234 16.6281H2.7273V4.06015Z" fill="#111111"/>
<mask id="mask0" mask-type="alpha" maskUnits="userSpaceOnUse" x="0" y="1" width="30" height="28">
<path fill-rule="evenodd" clip-rule="evenodd" d="M4.95868 19.1882H1.36364C0.610521 19.1882 0 18.6151 0 17.9082V2.78007C0 2.07311 0.610521 1.5 1.36364 1.5H23.6777C24.4308 1.5 25.0413 2.07311 25.0413 2.78007V17.9082C25.0413 18.6151 24.4308 19.1882 23.6777 19.1882H15.437L7.11491 24.7683C6.21236 25.3735 4.95868 24.7678 4.95868 23.7267V19.1882ZM27.2727 7.43488C27.2727 6.72791 27.8833 6.15481 28.6364 6.15481C29.3895 6.15481 30 6.72791 30 7.43488V22.563C30 23.2699 29.3895 23.8431 28.6364 23.8431H25.0413V27.2178C25.0413 28.2402 23.8275 28.85 22.9213 28.2829L15.8268 23.8431H15C14.2469 23.8431 13.6364 23.2699 13.6364 22.563C13.6364 21.856 14.2469 21.2829 15 21.2829H16.2397C16.5089 21.2829 16.7721 21.3577 16.9961 21.4979L22.3141 24.8259V22.563C22.3141 21.856 22.9246 21.2829 23.6777 21.2829H27.2727V7.43488ZM2.7273 4.06015H22.3141V16.6281H15C14.7158 16.6281 14.4387 16.7115 14.2074 16.8666L7.68598 21.2393V17.9082C7.68598 17.2012 7.07546 16.6281 6.32234 16.6281H2.7273V4.06015Z" fill="white"/>
</mask>
<g mask="url(#mask0)">
<rect width="30" height="30" fill="#FEB53E"/>
</g>
</svg>
