<svg width="21" height="20" viewBox="0 0 21 20" fill="none" xmlns="http://www.w3.org/2000/svg">
<path fill-rule="evenodd" clip-rule="evenodd" d="M18.2829 11.1191C20.5745 8.68991 20.5745 4.75114 18.2829 2.32192C15.9971 -0.101236 12.2945 -0.107291 10.0016 2.30375C7.7087 -0.107291 4.00603 -0.101236 1.72023 2.32192C-0.571295 4.75114 -0.571295 8.68991 1.72023 11.1191L9.35783 19.2174C9.71286 19.5939 10.2886 19.5939 10.6436 19.2175L18.2829 11.1191ZM16.9972 9.75614L10.0008 17.1729L3.00603 9.75622C1.42452 8.07968 1.42452 5.36137 3.00596 3.6849C4.5874 2.00844 7.15162 2.00844 8.73306 3.6849C8.92319 3.88645 9.09402 4.10884 9.24406 4.34852C9.60369 4.92301 10.3995 4.92301 10.7591 4.34852C10.9094 4.1084 11.0795 3.88698 11.2701 3.6849C12.8515 2.00844 15.4158 2.00844 16.9972 3.6849C18.5787 5.36137 18.5787 8.07968 16.9972 9.75614Z" fill="#111111"/>
<mask id="mask0" mask-type="alpha" maskUnits="userSpaceOnUse" x="0" y="0" width="21" height="20">
<path fill-rule="evenodd" clip-rule="evenodd" d="M18.2829 11.1191C20.5745 8.68991 20.5745 4.75114 18.2829 2.32192C15.9971 -0.101236 12.2945 -0.107291 10.0016 2.30375C7.7087 -0.107291 4.00603 -0.101236 1.72023 2.32192C-0.571295 4.75114 -0.571295 8.68991 1.72023 11.1191L9.35783 19.2174C9.71286 19.5939 10.2886 19.5939 10.6436 19.2175L18.2829 11.1191ZM16.9972 9.75614L10.0008 17.1729L3.00603 9.75622C1.42452 8.07968 1.42452 5.36137 3.00596 3.6849C4.5874 2.00844 7.15162 2.00844 8.73306 3.6849C8.92319 3.88645 9.09402 4.10884 9.24406 4.34852C9.60369 4.92301 10.3995 4.92301 10.7591 4.34852C10.9094 4.1084 11.0795 3.88698 11.2701 3.6849C12.8515 2.00844 15.4158 2.00844 16.9972 3.6849C18.5787 5.36137 18.5787 8.07968 16.9972 9.75614Z" fill="white"/>
</mask>
<g mask="url(#mask0)">
<rect width="20" height="20" fill="black"/>
</g>
</svg>
