<svg width="20" height="20" viewBox="0 0 20 20" fill="none" xmlns="http://www.w3.org/2000/svg">
<path fill-rule="evenodd" clip-rule="evenodd" d="M5.90909 5.90909V1H1V5.90909H5.90909ZM2.63636 2.63636V4.27273H4.27273V2.63636H2.63636ZM7.54545 4.27273V2.63636H19V4.27273H7.54545ZM7.54545 10.8182V9.18182H19V10.8182H7.54545ZM7.54545 15.7273V17.3636H19V15.7273H7.54545ZM2.63636 9.18182V10.8182H4.27273V9.18182H2.63636ZM5.90909 12.4545V7.54545H1V12.4545H5.90909ZM2.63636 15.7273V17.3636H4.27273V15.7273H2.63636ZM5.90909 19V14.0909H1V19H5.90909Z" fill="#111111"/>
<mask id="mask0" mask-type="alpha" maskUnits="userSpaceOnUse" x="1" y="1" width="18" height="18">
<path fill-rule="evenodd" clip-rule="evenodd" d="M5.90909 5.90909V1H1V5.90909H5.90909ZM2.63636 2.63636V4.27273H4.27273V2.63636H2.63636ZM7.54545 4.27273V2.63636H19V4.27273H7.54545ZM7.54545 10.8182V9.18182H19V10.8182H7.54545ZM7.54545 15.7273V17.3636H19V15.7273H7.54545ZM2.63636 9.18182V10.8182H4.27273V9.18182H2.63636ZM5.90909 12.4545V7.54545H1V12.4545H5.90909ZM2.63636 15.7273V17.3636H4.27273V15.7273H2.63636ZM5.90909 19V14.0909H1V19H5.90909Z" fill="white"/>
</mask>
<g mask="url(#mask0)">
<g filter="url(#filter0_d)">
<rect width="20" height="20" fill="#999999"/>
</g>
</g>
<defs>
<filter id="filter0_d" x="-8" y="-3" width="36" height="36" filterUnits="userSpaceOnUse" color-interpolation-filters="sRGB">
<feFlood flood-opacity="0" result="BackgroundImageFix"/>
<feColorMatrix in="SourceAlpha" type="matrix" values="0 0 0 0 0 0 0 0 0 0 0 0 0 0 0 0 0 0 127 0"/>
<feOffset dy="5"/>
<feGaussianBlur stdDeviation="4"/>
<feColorMatrix type="matrix" values="0 0 0 0 0 0 0 0 0 0 0 0 0 0 0 0 0 0 0.139804 0"/>
<feBlend mode="normal" in2="BackgroundImageFix" result="effect1_dropShadow"/>
<feBlend mode="normal" in="SourceGraphic" in2="effect1_dropShadow" result="shape"/>
</filter>
</defs>
</svg>
