<svg width="30" height="30" viewBox="0 0 30 30" fill="none" xmlns="http://www.w3.org/2000/svg">
<circle cx="15" cy="15" r="15" fill="#25BBE7"/>
<path d="M20.7156 12.817C20.2949 12.9983 19.8378 13.1289 19.3663 13.1797C19.8523 12.8895 20.2223 12.4325 20.3964 11.8884C19.9466 12.1568 19.4388 12.3527 18.9092 12.4542C18.4812 11.9972 17.8719 11.7143 17.1972 11.7143C15.8986 11.7143 14.854 12.7662 14.854 14.0575C14.854 14.2388 14.8758 14.4202 14.912 14.5943C12.9678 14.4927 11.234 13.5642 10.0806 12.1423C9.87744 12.4905 9.76137 12.8895 9.76137 13.3248C9.76137 14.1373 10.1749 14.8555 10.806 15.2762C10.4215 15.2617 10.0588 15.1529 9.74686 14.9788C9.74686 14.986 9.74686 15.0006 9.74686 15.0078C9.74686 16.1468 10.5521 17.0898 11.6258 17.3075C11.4299 17.3583 11.2195 17.3873 11.0091 17.3873C10.8568 17.3873 10.7117 17.3728 10.5666 17.351C10.864 18.2796 11.7273 18.9542 12.7575 18.976C11.9522 19.6071 10.9438 19.9771 9.84842 19.9771C9.65255 19.9771 9.47119 19.9699 9.28258 19.9481C10.32 20.6155 11.5532 21 12.8808 21C17.1899 21 19.5476 17.4308 19.5476 14.3331C19.5476 14.2316 19.5476 14.13 19.5404 14.0285C19.9974 13.6948 20.3964 13.2812 20.7156 12.817Z" fill="white"/>
</svg>
