<svg width="30" height="30" viewBox="0 0 30 30" fill="none" xmlns="http://www.w3.org/2000/svg">
<circle cx="15" cy="15" r="15" fill="#E73C25"/>
<path d="M13.6579 18.0402V14.3912L17.1691 16.2266L13.6579 18.0402ZM15 11.7868C12.2651 11.7868 10.4515 11.9174 10.4515 11.9174C10.1975 11.9464 9.63895 11.9464 9.14565 12.4688C9.14565 12.4688 8.74665 12.8605 8.63058 13.76C8.49275 14.8119 8.5 15.8638 8.5 15.8638V16.8504C8.5 16.8504 8.49275 17.9023 8.63058 18.9542C8.74665 19.8465 9.14565 20.2455 9.14565 20.2455C9.63895 20.7606 10.2919 20.7461 10.582 20.7969C10.582 20.7969 11.6194 20.8984 15 20.9275C17.7349 20.9275 19.5485 20.7896 19.5485 20.7896C19.8025 20.7606 20.361 20.7606 20.8544 20.2455C20.8544 20.2455 21.2533 19.8465 21.3694 18.9542C21.5073 17.9023 21.5 16.8504 21.5 16.8504V15.8638C21.5 15.8638 21.5073 14.8119 21.3694 13.76C21.2533 12.8605 20.8544 12.4688 20.8544 12.4688C20.361 11.9464 19.8025 11.9464 19.5485 11.9174C19.5485 11.9174 17.7349 11.7868 15 11.7868Z" fill="white"/>
</svg>
