<svg width="65" height="30" viewBox="0 0 65 30" fill="none" xmlns="http://www.w3.org/2000/svg">
<circle cx="15" cy="15" r="15" fill="#282828"/>
<circle cx="50" cy="15" r="15" fill="#EF5285"/>
<path d="M16.8553 16.3571C16.8553 17.38 16.0211 18.2143 14.9982 18.2143C13.9753 18.2143 13.141 17.38 13.141 16.3571C13.141 15.3343 13.9753 14.5 14.9982 14.5C16.0211 14.5 16.8553 15.3343 16.8553 16.3571ZM17.8564 16.3571C17.8564 14.7757 16.5797 13.4989 14.9982 13.4989C13.4167 13.4989 12.1399 14.7757 12.1399 16.3571C12.1399 17.9386 13.4167 19.2154 14.9982 19.2154C16.5797 19.2154 17.8564 17.9386 17.8564 16.3571ZM18.6399 13.3828C18.6399 13.0128 18.3425 12.7154 17.9725 12.7154C17.6025 12.7154 17.3051 13.0128 17.3051 13.3828C17.3051 13.7528 17.6025 14.0502 17.9725 14.0502C18.3425 14.0502 18.6399 13.7528 18.6399 13.3828ZM14.9982 11.7868C15.8107 11.7868 17.5518 11.7215 18.2845 12.0117C18.5384 12.1133 18.727 12.2366 18.9229 12.4325C19.1187 12.6283 19.242 12.817 19.3436 13.0709C19.6338 13.8036 19.5685 15.5446 19.5685 16.3571C19.5685 17.1696 19.6338 18.9107 19.3436 19.6434C19.242 19.8973 19.1187 20.0859 18.9229 20.2818C18.727 20.4777 18.5384 20.601 18.2845 20.7026C17.5518 20.9927 15.8107 20.9275 14.9982 20.9275C14.1857 20.9275 12.4446 20.9927 11.7119 20.7026C11.458 20.601 11.2694 20.4777 11.0735 20.2818C10.8777 20.0859 10.7543 19.8973 10.6528 19.6434C10.3626 18.9107 10.4279 17.1696 10.4279 16.3571C10.4279 15.5446 10.3626 13.8036 10.6528 13.0709C10.7543 12.817 10.8777 12.6283 11.0735 12.4325C11.2694 12.2366 11.458 12.1133 11.7119 12.0117C12.4446 11.7215 14.1857 11.7868 14.9982 11.7868ZM20.5696 16.3571C20.5696 15.5882 20.5769 14.8265 20.5333 14.0575C20.4898 13.1652 20.2867 12.3744 19.6338 11.7215C18.9809 11.0686 18.1902 10.8655 17.2979 10.822C16.5289 10.7785 15.7672 10.7857 14.9982 10.7857C14.2292 10.7857 13.4675 10.7785 12.6985 10.822C11.8062 10.8655 11.0155 11.0686 10.3626 11.7215C9.70968 12.3744 9.50656 13.1652 9.46303 14.0575C9.4195 14.8265 9.42676 15.5882 9.42676 16.3571C9.42676 17.1261 9.4195 17.8878 9.46303 18.6568C9.50656 19.5491 9.70968 20.3398 10.3626 20.9927C11.0155 21.6456 11.8062 21.8488 12.6985 21.8923C13.4675 21.9358 14.2292 21.9286 14.9982 21.9286C15.7672 21.9286 16.5289 21.9358 17.2979 21.8923C18.1902 21.8488 18.9809 21.6456 19.6338 20.9927C20.2867 20.3398 20.4898 19.5491 20.5333 18.6568C20.5769 17.8878 20.5696 17.1261 20.5696 16.3571Z" fill="white"/>
<path d="M45.3599 14.1881C45.3599 15.1384 45.7371 16.524 46.7745 16.8359C46.8108 16.8432 46.8615 16.8577 46.8978 16.8577C47.1372 16.8577 47.275 16.1903 47.275 16.0017C47.275 15.7768 46.7019 15.298 46.7019 14.3622C46.7019 12.418 48.1818 11.0396 50.097 11.0396C51.7438 11.0396 52.9625 11.9754 52.9625 13.6948C52.9625 14.9788 52.4475 17.3873 50.7789 17.3873C50.1768 17.3873 49.6618 16.952 49.6618 16.3281C49.6618 15.4141 50.3002 14.529 50.3002 13.5859C50.3002 13.0128 49.9737 12.5485 49.3643 12.5485C48.5373 12.5485 48.0295 13.4771 48.0295 14.2098C48.0295 14.6161 48.0803 15.0658 48.2616 15.4358C47.9279 16.8722 47.246 19.0123 47.246 20.4922C47.246 20.9492 47.3113 21.399 47.3548 21.856L47.4201 21.9286L47.5217 21.8923C48.7404 20.2238 48.6969 19.8973 49.2483 17.7137C49.5457 18.2796 50.3147 18.5843 50.924 18.5843C53.4921 18.5843 54.6456 16.0815 54.6456 13.8253C54.6456 11.4241 52.5708 9.85714 50.2929 9.85714C47.8119 9.85714 45.3599 11.5112 45.3599 14.1881Z" fill="white"/>
</svg>
