<svg width="58" height="10" viewBox="0 0 58 10" fill="none" xmlns="http://www.w3.org/2000/svg">
<path d="M9.64278 3.4771L6.69268 3.02725L5.37491 0.224147C5.29695 0.0852598 5.1548 0 5.0012 0C4.84759 0 4.70544 0.0852598 4.62749 0.224147L3.30721 3.02725L0.357115 3.4771C0.200175 3.50087 0.069701 3.61606 0.0205406 3.77424C-0.0286198 3.93243 0.0120577 4.10619 0.125473 4.22247L2.26066 6.40567L1.75696 9.489C1.73018 9.65301 1.79445 9.81874 1.92275 9.91653C2.05105 10.0143 2.22112 10.0272 2.36148 9.94978L4.99995 8.49445L7.63841 9.94978C7.77877 10.0272 7.94885 10.0143 8.07714 9.91653C8.20544 9.81874 8.26971 9.65301 8.24293 9.489L7.73923 6.40567L9.87442 4.22247C9.9878 4.10631 10.0286 3.93271 9.9796 3.77458C9.93063 3.61644 9.80041 3.50114 9.64361 3.4771H9.64278Z" fill="#111111"/>
<mask id="mask0" mask-type="alpha" maskUnits="userSpaceOnUse" x="0" y="0" width="10" height="10">
<path d="M9.64278 3.4771L6.69268 3.02725L5.37491 0.224147C5.29695 0.0852598 5.1548 0 5.0012 0C4.84759 0 4.70544 0.0852598 4.62749 0.224147L3.30721 3.02725L0.357115 3.4771C0.200175 3.50087 0.069701 3.61606 0.0205406 3.77424C-0.0286198 3.93243 0.0120577 4.10619 0.125473 4.22247L2.26066 6.40567L1.75696 9.489C1.73018 9.65301 1.79445 9.81874 1.92275 9.91653C2.05105 10.0143 2.22112 10.0272 2.36148 9.94978L4.99995 8.49445L7.63841 9.94978C7.77877 10.0272 7.94885 10.0143 8.07714 9.91653C8.20544 9.81874 8.26971 9.65301 8.24293 9.489L7.73923 6.40567L9.87442 4.22247C9.9878 4.10631 10.0286 3.93271 9.9796 3.77458C9.93063 3.61644 9.80041 3.50114 9.64361 3.4771H9.64278Z" fill="white"/>
</mask>
<g mask="url(#mask0)">
<rect width="10" height="10" fill="#FEB53E"/>
</g>
<path d="M21.6428 3.4771L18.6927 3.02725L17.3749 0.224147C17.297 0.0852598 17.1548 0 17.0012 0C16.8476 0 16.7054 0.0852598 16.6275 0.224147L15.3072 3.02725L12.3571 3.4771C12.2002 3.50087 12.0697 3.61606 12.0205 3.77424C11.9714 3.93243 12.0121 4.10619 12.1255 4.22247L14.2607 6.40567L13.757 9.489C13.7302 9.65301 13.7945 9.81874 13.9227 9.91653C14.051 10.0143 14.2211 10.0272 14.3615 9.94978L16.9999 8.49445L19.6384 9.94978C19.7788 10.0272 19.9488 10.0143 20.0771 9.91653C20.2054 9.81874 20.2697 9.65301 20.2429 9.489L19.7392 6.40567L21.8744 4.22247C21.9878 4.10631 22.0286 3.93271 21.9796 3.77458C21.9306 3.61644 21.8004 3.50114 21.6436 3.4771H21.6428Z" fill="#111111"/>
<mask id="mask1" mask-type="alpha" maskUnits="userSpaceOnUse" x="12" y="0" width="10" height="10">
<path d="M21.6428 3.4771L18.6927 3.02725L17.3749 0.224147C17.297 0.0852598 17.1548 0 17.0012 0C16.8476 0 16.7054 0.0852598 16.6275 0.224147L15.3072 3.02725L12.3571 3.4771C12.2002 3.50087 12.0697 3.61606 12.0205 3.77424C11.9714 3.93243 12.0121 4.10619 12.1255 4.22247L14.2607 6.40567L13.757 9.489C13.7302 9.65301 13.7945 9.81874 13.9227 9.91653C14.051 10.0143 14.2211 10.0272 14.3615 9.94978L16.9999 8.49445L19.6384 9.94978C19.7788 10.0272 19.9488 10.0143 20.0771 9.91653C20.2054 9.81874 20.2697 9.65301 20.2429 9.489L19.7392 6.40567L21.8744 4.22247C21.9878 4.10631 22.0286 3.93271 21.9796 3.77458C21.9306 3.61644 21.8004 3.50114 21.6436 3.4771H21.6428Z" fill="white"/>
</mask>
<g mask="url(#mask1)">
<rect x="12" width="10" height="10" fill="#FEB53E"/>
</g>
<path d="M33.6428 3.4771L30.6927 3.02725L29.3749 0.224147C29.297 0.0852598 29.1548 0 29.0012 0C28.8476 0 28.7054 0.0852598 28.6275 0.224147L27.3072 3.02725L24.3571 3.4771C24.2002 3.50087 24.0697 3.61606 24.0205 3.77424C23.9714 3.93243 24.0121 4.10619 24.1255 4.22247L26.2607 6.40567L25.757 9.489C25.7302 9.65301 25.7945 9.81874 25.9227 9.91653C26.051 10.0143 26.2211 10.0272 26.3615 9.94978L28.9999 8.49445L31.6384 9.94978C31.7788 10.0272 31.9488 10.0143 32.0771 9.91653C32.2054 9.81874 32.2697 9.65301 32.2429 9.489L31.7392 6.40567L33.8744 4.22247C33.9878 4.10631 34.0286 3.93271 33.9796 3.77458C33.9306 3.61644 33.8004 3.50114 33.6436 3.4771H33.6428Z" fill="#111111"/>
<mask id="mask2" mask-type="alpha" maskUnits="userSpaceOnUse" x="24" y="0" width="10" height="10">
<path d="M33.6428 3.4771L30.6927 3.02725L29.3749 0.224147C29.297 0.0852598 29.1548 0 29.0012 0C28.8476 0 28.7054 0.0852598 28.6275 0.224147L27.3072 3.02725L24.3571 3.4771C24.2002 3.50087 24.0697 3.61606 24.0205 3.77424C23.9714 3.93243 24.0121 4.10619 24.1255 4.22247L26.2607 6.40567L25.757 9.489C25.7302 9.65301 25.7945 9.81874 25.9227 9.91653C26.051 10.0143 26.2211 10.0272 26.3615 9.94978L28.9999 8.49445L31.6384 9.94978C31.7788 10.0272 31.9488 10.0143 32.0771 9.91653C32.2054 9.81874 32.2697 9.65301 32.2429 9.489L31.7392 6.40567L33.8744 4.22247C33.9878 4.10631 34.0286 3.93271 33.9796 3.77458C33.9306 3.61644 33.8004 3.50114 33.6436 3.4771H33.6428Z" fill="white"/>
</mask>
<g mask="url(#mask2)">
<rect x="24" width="10" height="10" fill="#FEB53E"/>
</g>
<path d="M45.6428 3.4771L42.6927 3.02725L41.3749 0.224147C41.297 0.0852598 41.1548 0 41.0012 0C40.8476 0 40.7054 0.0852598 40.6275 0.224147L39.3072 3.02725L36.3571 3.4771C36.2002 3.50087 36.0697 3.61606 36.0205 3.77424C35.9714 3.93243 36.0121 4.10619 36.1255 4.22247L38.2607 6.40567L37.757 9.489C37.7302 9.65301 37.7945 9.81874 37.9227 9.91653C38.051 10.0143 38.2211 10.0272 38.3615 9.94978L40.9999 8.49445L43.6384 9.94978C43.7788 10.0272 43.9488 10.0143 44.0771 9.91653C44.2054 9.81874 44.2697 9.65301 44.2429 9.489L43.7392 6.40567L45.8744 4.22247C45.9878 4.10631 46.0286 3.93271 45.9796 3.77458C45.9306 3.61644 45.8004 3.50114 45.6436 3.4771H45.6428Z" fill="#111111"/>
<mask id="mask3" mask-type="alpha" maskUnits="userSpaceOnUse" x="36" y="0" width="10" height="10">
<path d="M45.6428 3.4771L42.6927 3.02725L41.3749 0.224147C41.297 0.0852598 41.1548 0 41.0012 0C40.8476 0 40.7054 0.0852598 40.6275 0.224147L39.3072 3.02725L36.3571 3.4771C36.2002 3.50087 36.0697 3.61606 36.0205 3.77424C35.9714 3.93243 36.0121 4.10619 36.1255 4.22247L38.2607 6.40567L37.757 9.489C37.7302 9.65301 37.7945 9.81874 37.9227 9.91653C38.051 10.0143 38.2211 10.0272 38.3615 9.94978L40.9999 8.49445L43.6384 9.94978C43.7788 10.0272 43.9488 10.0143 44.0771 9.91653C44.2054 9.81874 44.2697 9.65301 44.2429 9.489L43.7392 6.40567L45.8744 4.22247C45.9878 4.10631 46.0286 3.93271 45.9796 3.77458C45.9306 3.61644 45.8004 3.50114 45.6436 3.4771H45.6428Z" fill="white"/>
</mask>
<g mask="url(#mask3)">
<rect x="36" width="10" height="10" fill="#FEB53E"/>
</g>
<path d="M57.6428 3.4771L54.6927 3.02725L53.3749 0.224147C53.297 0.0852598 53.1548 0 53.0012 0C52.8476 0 52.7054 0.0852598 52.6275 0.224147L51.3072 3.02725L48.3571 3.4771C48.2002 3.50087 48.0697 3.61606 48.0205 3.77424C47.9714 3.93243 48.0121 4.10619 48.1255 4.22247L50.2607 6.40567L49.757 9.489C49.7302 9.65301 49.7945 9.81874 49.9227 9.91653C50.051 10.0143 50.2211 10.0272 50.3615 9.94978L52.9999 8.49445L55.6384 9.94978C55.7788 10.0272 55.9488 10.0143 56.0771 9.91653C56.2054 9.81874 56.2697 9.65301 56.2429 9.489L55.7392 6.40567L57.8744 4.22247C57.9878 4.10631 58.0286 3.93271 57.9796 3.77458C57.9306 3.61644 57.8004 3.50114 57.6436 3.4771H57.6428Z" fill="#111111"/>
<mask id="mask4" mask-type="alpha" maskUnits="userSpaceOnUse" x="48" y="0" width="10" height="10">
<path d="M57.6428 3.4771L54.6927 3.02725L53.3749 0.224147C53.297 0.0852598 53.1548 0 53.0012 0C52.8476 0 52.7054 0.0852598 52.6275 0.224147L51.3072 3.02725L48.3571 3.4771C48.2002 3.50087 48.0697 3.61606 48.0205 3.77424C47.9714 3.93243 48.0121 4.10619 48.1255 4.22247L50.2607 6.40567L49.757 9.489C49.7302 9.65301 49.7945 9.81874 49.9227 9.91653C50.051 10.0143 50.2211 10.0272 50.3615 9.94978L52.9999 8.49445L55.6384 9.94978C55.7788 10.0272 55.9488 10.0143 56.0771 9.91653C56.2054 9.81874 56.2697 9.65301 56.2429 9.489L55.7392 6.40567L57.8744 4.22247C57.9878 4.10631 58.0286 3.93271 57.9796 3.77458C57.9306 3.61644 57.8004 3.50114 57.6436 3.4771H57.6428Z" fill="white"/>
</mask>
<g mask="url(#mask4)">
<rect x="48" width="10" height="10" fill="#EEEEEE"/>
</g>
</svg>
